
<!DOCTYPE svg PUBLIC "-//W3C//DTD SVG 1.1//EN" "http://www.w3.org/Graphics/SVG/1.1/DTD/svg11.dtd">

<!-- Uploaded to: SVG Repo, www.svgrepo.com, Transformed by: SVG Repo Mixer Tools -->
<svg fill="#4e5e60" height="800px" width="800px" version="1.1" id="Layer_1" xmlns="http://www.w3.org/2000/svg" xmlns:xlink="http://www.w3.org/1999/xlink" viewBox="-33 -33 396.00 396.00" xml:space="preserve" transform="matrix(1, 0, 0, -1, 0, 0)" stroke="#4e5e60" stroke-width="0.0033">

<g id="SVGRepo_bgCarrier" stroke-width="0"/>

<g id="SVGRepo_tracerCarrier" stroke-linecap="round" stroke-linejoin="round" stroke="#CCCCCC" stroke-width="1.98"/>

<g id="SVGRepo_iconCarrier"> <g id="XMLID_28_"> <path id="XMLID_29_" d="M315,0H15C6.716,0,0,6.716,0,15v300c0,8.284,6.716,15,15,15h300c8.284,0,15-6.716,15-15V15 C330,6.716,323.284,0,315,0z M300,300H30V30h270V300z"/> <path id="XMLID_71_" d="M194.394,255.607C197.322,258.536,201.161,260,205,260s7.678-1.464,10.606-4.394 c5.858-5.858,5.858-15.355,0-21.213l-69.393-69.392l69.393-69.395c5.858-5.858,5.858-15.355,0-21.213 c-5.857-5.857-15.355-5.858-21.213,0.001l-80,80.002c-2.813,2.813-4.394,6.628-4.394,10.607c0,3.979,1.58,7.794,4.394,10.607 L194.394,255.607z"/> </g> </g>

</svg>