

<svg width="20" height="20" viewBox="0 0 20 20" fill="none" xmlns="http://www.w3.org/2000/svg">
<path fill-rule="evenodd" clip-rule="evenodd" d="M9.75892 1.53711C5.68521 1.53711 2.38281 4.8395 2.38281 8.91321C2.38281 12.9869 5.68521 16.2893 9.75892 16.2893C13.8326 16.2893 17.135 12.9869 17.135 8.91321C17.135 4.8395 13.8326 1.53711 9.75892 1.53711ZM0.882812 8.91321C0.882812 4.01108 4.85678 0.0371094 9.75892 0.0371094C14.6611 0.0371094 18.635 4.01108 18.635 8.91321C18.635 13.8153 14.6611 17.7893 9.75892 17.7893C4.85678 17.7893 0.882812 13.8153 0.882812 8.91321Z" fill="#5C5F61"/>
<path fill-rule="evenodd" clip-rule="evenodd" d="M18.0873 18.6022L14.9412 15.4564C14.6483 15.1635 14.6483 14.6887 14.9412 14.3957C15.234 14.1028 15.7089 14.1028 16.0018 14.3957L19.148 17.5415C19.4409 17.8344 19.4409 18.3093 19.148 18.6022C18.8551 18.8951 18.3803 18.8951 18.0873 18.6022Z" fill="#5C5F61"/>
</svg>
